<svg width="60" height="55" viewBox="0 0 60 55" fill="none" xmlns="http://www.w3.org/2000/svg">
<path d="M57.1069 44.8025C57.1069 47.2016 55.7366 49.3953 53.5707 50.427C49.4815 52.3749 41.6898 54.9999 29.3938 54.9999C17.0978 54.9999 9.30611 52.3749 5.21696 50.427C3.05102 49.3953 1.68079 47.2016 1.68079 44.8025C1.68079 41.3561 4.47471 38.5621 7.92119 38.5621H50.8665C54.3129 38.5621 57.1069 41.3561 57.1069 44.8025Z" fill="#E59328"/>
<path d="M56.866 35.2962C56.866 32.8972 55.4958 30.7035 53.3298 29.6718C49.2407 27.7239 41.449 25.0989 29.153 25.0989C16.857 25.0989 9.06527 27.7239 4.97611 29.6718C2.81018 30.7035 1.43994 32.8972 1.43994 35.2962C1.43994 35.3309 1.44199 35.3651 1.44259 35.3995C1.44199 35.4341 1.43994 35.4683 1.43994 35.5028C1.43994 37.9019 2.81018 40.0956 4.97611 41.1273C9.06527 43.0752 16.857 45.7002 29.153 45.7002C41.449 45.7002 49.2407 43.0752 53.3298 41.1273C55.4958 40.0956 56.866 37.9019 56.866 35.5028C56.866 35.4682 56.864 35.434 56.8634 35.3995C56.864 35.365 56.866 35.3308 56.866 35.2962V35.2962Z" fill="#7A2F18"/>
<path d="M29.7701 41.4291C43.8278 41.4291 55.2239 37.5473 55.2239 32.7587C55.2239 27.9702 43.8278 24.0884 29.7701 24.0884C15.7123 24.0884 4.31628 27.9702 4.31628 32.7587C4.31628 37.5473 15.7123 41.4291 29.7701 41.4291Z" fill="#DB1D1D"/>
<path d="M29.7701 38.1283C43.8278 38.1283 55.2239 34.2465 55.2239 29.458C55.2239 24.6695 43.8278 20.7876 29.7701 20.7876C15.7123 20.7876 4.31628 24.6695 4.31628 29.458C4.31628 34.2465 15.7123 38.1283 29.7701 38.1283Z" fill="#FF473E"/>
<path d="M57.3603 23.9963C54.4509 22.3813 50.1987 21.7458 46.4606 21.7475C44.4216 21.7485 42.3457 21.9612 40.3996 22.3591C38.8837 22.669 37.4021 23.0612 35.8431 23.2629C35.5818 23.2738 35.3202 23.2762 35.0587 23.2703C34.8794 23.2425 34.701 23.2096 34.5235 23.1717C33.8773 22.9546 33.2635 22.7005 32.637 22.4576C31.6332 22.0686 30.582 21.7645 29.5007 21.4776C27.5986 20.973 25.5952 20.7325 23.5564 20.6122C19.7063 20.385 15.7372 20.9653 12.3141 22.1312C11.7659 22.1764 11.2252 22.2871 10.7033 22.4607C7.20902 23.6261 4.24966 25.4861 2.17126 27.6584C1.72988 28.1198 1.33907 28.6022 1.00365 29.1005C0.272479 30.1868 -0.383443 31.3042 0.265134 32.5056C1.47946 34.7549 5.10857 35.5756 8.44706 35.0477C10.7498 34.6837 12.5454 33.6862 14.3512 32.7425C14.8039 32.528 15.2725 32.3322 15.7667 32.1644C15.8216 32.1527 15.8764 34.189 15.9316 34.1784C16.3947 34.4562 16.8308 34.7531 17.304 35.0243C18.1102 35.4862 18.9727 35.9313 19.8899 36.2961C21.7682 37.0434 24.0147 37.522 26.2248 37.5085C28.4829 37.4948 30.6394 37.0214 32.4212 36.1178C33.3704 35.6364 34.149 35.0685 34.7506 34.3769C34.9708 34.1238 35.161 33.8617 35.3693 33.6064C35.5397 33.6357 36.8287 32.0145 37.2782 32.2282C38.4036 32.8204 39.5023 33.4429 40.7219 33.9479C42.4084 34.6463 44.3932 35.0657 46.3949 35.0692C50.2492 35.0762 53.8853 33.6159 56.5612 31.8952C57.942 31.0072 59.2334 29.8287 59.6131 28.5599C60.1162 26.8791 59.399 25.128 57.3603 23.9963V23.9963ZM17.8924 26.628C18.6975 26.4553 19.5106 26.3225 20.3288 26.2302C21.4575 26.1595 22.5896 26.1595 23.7183 26.2302C24.778 26.35 25.8139 26.5327 26.8209 26.7802C27.6196 27.0326 28.3701 29.3837 29.1345 29.6744C28.3601 30.2743 27.9236 30.9899 27.2859 31.6514C27.2535 31.6733 27.22 31.6946 27.1867 31.7159C27.1039 31.7489 27.0205 31.7805 26.9366 31.8105C26.7798 31.8423 26.6223 31.8703 26.4641 31.8943C26.2614 31.8998 26.0586 31.8995 25.8559 31.8936C25.5536 31.8487 25.2531 31.7925 24.955 31.7252C24.476 31.5669 24.0061 31.3821 23.5476 31.1717C22.7071 30.7006 21.9468 30.1737 21.0692 29.7286C20.1214 29.2481 19.0455 26.8212 17.8924 26.628V26.628ZM49.5125 28.5175C48.8996 28.8063 48.2611 29.0661 47.5854 29.2852C47.2854 29.3533 46.983 29.4099 46.6787 29.455C46.5218 29.4588 46.3649 29.4591 46.208 29.4558C46.0524 29.4312 45.8973 29.4028 45.7431 29.3706C45.2061 29.1876 44.701 28.9702 44.2115 28.7353C43.634 28.4294 43.0632 28.1133 42.4778 27.8113C43.2777 27.648 44.0839 27.5048 44.9121 27.4062C45.9659 27.3416 47.0227 27.3423 48.0765 27.4081C48.9398 27.5072 49.7971 27.6532 50.6445 27.8454C50.2871 28.0829 49.9065 28.305 49.5125 28.5175V28.5175Z" fill="#00B89C"/>
<path d="M12.5783 36.8949C10.9625 34.2811 7.85637 29.463 3.97562 24.4471C-1.60043 25.3934 42.8394 17.9028 42.8394 17.9028C55.2495 19.21 56.8887 25.3497 56.8949 28.48C56.897 29.482 56.0376 30.2702 55.0382 30.1996C28.4522 28.3171 18.498 34.2517 15.2194 37.2671C14.4205 38.0015 13.149 37.818 12.5783 36.8949V36.8949Z" fill="#FECB21"/>
<path d="M29.153 0C14.3207 0 1.43994 9.36783 1.43994 20.6517C1.43994 26.668 13.8474 31.5451 29.153 31.5451C44.4585 31.5451 56.866 26.668 56.866 20.6517C56.866 9.687 43.9853 0 29.153 0V0Z" fill="#E59328"/>
<path d="M11.7735 12.9693L12.9366 15.4896C13.0025 15.6324 13.009 15.7956 12.9546 15.9432C12.9002 16.0909 12.7894 16.2108 12.6466 16.2767C12.5635 16.3147 12.4729 16.3331 12.3816 16.3305C12.2903 16.328 12.2008 16.3046 12.12 16.2622L9.66798 14.9615C8.92176 14.5657 8.63762 13.6398 9.03349 12.8936C9.42935 12.1474 10.3552 11.8632 11.1014 12.2591C11.3974 12.4156 11.6335 12.6652 11.7735 12.9693V12.9693ZM36.2924 4.05058C35.5462 3.65471 34.6203 3.93885 34.2245 4.68507C33.8286 5.43129 34.1127 6.35714 34.8589 6.753L37.3109 8.05365C37.3918 8.09611 37.4813 8.11949 37.5726 8.12202C37.6638 8.12454 37.7545 8.10614 37.8376 8.06822C37.9804 8.00229 38.0912 7.88233 38.1456 7.73471C38.2 7.58709 38.1935 7.42391 38.1276 7.28106L36.9644 4.7608C36.8244 4.45673 36.5883 4.20716 36.2924 4.05058ZM22.4949 7.14995C22.0104 6.45791 21.0567 6.28972 20.3646 6.77431C19.6726 7.25879 19.5044 8.21257 19.989 8.90461L21.581 11.1783C21.6337 11.2529 21.7027 11.3144 21.7829 11.3582C21.863 11.402 21.9521 11.4268 22.0433 11.4308C22.2005 11.437 22.3538 11.3806 22.4694 11.2739C22.585 11.1671 22.6535 11.0189 22.6597 10.8617L22.7704 8.0882C22.784 7.7537 22.6872 7.42401 22.4949 7.14995V7.14995ZM50.609 13.9118C50.975 13.1132 50.6243 12.1692 49.8258 11.8033C49.0272 11.4373 48.0832 11.788 47.7173 12.5865L46.8199 14.5446C46.7705 14.6525 46.7532 14.7723 46.7702 14.8897C46.7872 15.0071 46.8376 15.1171 46.9156 15.2066C46.9935 15.2961 47.0955 15.3612 47.2095 15.3941C47.3235 15.427 47.4445 15.4264 47.5582 15.3923L49.621 14.7723C50.0406 14.644 50.4118 14.342 50.609 13.9118V13.9118ZM27.9194 20.3714C27.089 20.2165 26.2902 20.7639 26.1351 21.5943C25.9802 22.4247 26.5276 23.2235 27.358 23.3786L30.0865 23.8879C30.1764 23.9042 30.2687 23.8998 30.3566 23.875C30.4444 23.8502 30.5255 23.8056 30.5934 23.7446C30.6512 23.6923 30.6981 23.6292 30.7315 23.5588C30.7648 23.4884 30.784 23.4121 30.7879 23.3343C30.7917 23.2565 30.7803 23.1787 30.7541 23.1054C30.7279 23.032 30.6875 22.9645 30.6352 22.9068L28.7728 20.8487C28.5485 20.6002 28.2486 20.4325 27.9194 20.3714V20.3714ZM42.6259 22.6896C42.9641 23.4637 43.8657 23.8171 44.6399 23.4789C45.414 23.1407 45.7674 22.239 45.4292 21.4649L44.3179 18.9214C44.281 18.8378 44.2255 18.7639 44.1556 18.7051C44.0857 18.6464 44.0032 18.6044 43.9146 18.5825C43.8389 18.564 43.7603 18.5607 43.6833 18.5726C43.6063 18.5846 43.5325 18.6116 43.4659 18.652C43.3993 18.6925 43.3414 18.7458 43.2954 18.8086C43.2494 18.8715 43.2163 18.9428 43.1979 19.0185L42.5412 21.7154C42.4619 22.0406 42.4916 22.3829 42.6259 22.6896V22.6896ZM19.6507 21.9295C19.7477 21.0807 19.1383 20.314 18.2895 20.217C17.4407 20.1199 16.674 20.7294 16.5769 21.5782L16.2583 24.367C16.2503 24.4382 16.2577 24.5103 16.2799 24.5784C16.3021 24.6466 16.3385 24.7092 16.3868 24.7621C16.4765 24.8597 16.6014 24.9177 16.7338 24.9233C16.8663 24.9289 16.9956 24.8817 17.0932 24.792L19.1603 22.893C19.4344 22.6413 19.6085 22.2992 19.6507 21.9295V21.9295ZM33.6694 16.8902C34.4624 17.1814 35.3413 16.7747 35.6325 15.9818C35.9237 15.1888 35.517 14.3099 34.7241 14.0187L32.1186 13.0618C32.0327 13.0307 31.9409 13.0196 31.8501 13.0295C31.7594 13.0393 31.6721 13.0698 31.5949 13.1186C31.4623 13.2033 31.3687 13.3371 31.3348 13.4908C31.3009 13.6444 31.3294 13.8052 31.414 13.9378L32.9074 16.2775C33.0873 16.5598 33.355 16.7752 33.6694 16.8902V16.8902Z" fill="#FFCD7D"/>
</svg>
